<?xml version="1.0" encoding="utf-8" ?>
<svg baseProfile="full" viewBox="0 0 192 140" height="100%" version="1.1" width="100%" xmlns="http://www.w3.org/2000/svg" xmlns:ev="http://www.w3.org/2001/xml-events" xmlns:xlink="http://www.w3.org/1999/xlink">
<defs />
<circle cx="96" cy="96" fill="#125E87" r="32" />
<circle cx="144" cy="96" fill="#125E87" r="16" />
<circle cx="48" cy="96" fill="#125E87" r="16" />
<circle cx="96" cy="48" fill="#125E87" r="16" />
<circle cx="168" cy="96" fill="#125E87" r="8" />
<circle cx="144" cy="120" fill="#125E87" r="8" />
<circle cx="144" cy="72" fill="#125E87" r="8" />
<circle cx="48" cy="120" fill="#125E87" r="8" />
<circle cx="24" cy="96" fill="#125E87" r="8" />
<circle cx="48" cy="72" fill="#125E87" r="8" />
<circle cx="120" cy="48" fill="#125E87" r="8" />
<circle cx="72" cy="48" fill="#125E87" r="8" />
<circle cx="96" cy="24" fill="#125E87" r="8" />
<circle cx="180" cy="96" fill="#125E87" r="4" />
<circle cx="168" cy="108" fill="#125E87" r="4" />
<circle cx="168" cy="84" fill="#125E87" r="4" />
<circle cx="156" cy="120" fill="#125E87" r="4" />
<circle cx="144" cy="132" fill="#125E87" r="4" />
<circle cx="132" cy="120" fill="#125E87" r="4" />
<circle cx="156" cy="72" fill="#125E87" r="4" />
<circle cx="132" cy="72" fill="#125E87" r="4" />
<circle cx="144" cy="60" fill="#125E87" r="4" />
<circle cx="60" cy="120" fill="#125E87" r="4" />
<circle cx="48" cy="132" fill="#125E87" r="4" />
<circle cx="36" cy="120" fill="#125E87" r="4" />
<circle cx="24" cy="108" fill="#125E87" r="4" />
<circle cx="12" cy="96" fill="#125E87" r="4" />
<circle cx="24" cy="84" fill="#125E87" r="4" />
<circle cx="60" cy="72" fill="#125E87" r="4" />
<circle cx="36" cy="72" fill="#125E87" r="4" />
<circle cx="48" cy="60" fill="#125E87" r="4" />
<circle cx="132" cy="48" fill="#125E87" r="4" />
<circle cx="120" cy="60" fill="#125E87" r="4" />
<circle cx="120" cy="36" fill="#125E87" r="4" />
<circle cx="72" cy="60" fill="#125E87" r="4" />
<circle cx="60" cy="48" fill="#125E87" r="4" />
<circle cx="72" cy="36" fill="#125E87" r="4" />
<circle cx="108" cy="24" fill="#125E87" r="4" />
<circle cx="84" cy="24" fill="#125E87" r="4" />
<circle cx="96" cy="12" fill="#125E87" r="4" />
</svg>
